<mxfile host="app.diagrams.net" modified="2020-12-03T09:57:51.444Z" agent="5.0 (Windows NT 10.0; Win64; x64) AppleWebKit/537.36 (KHTML, like Gecko) Chrome/86.0.4240.198 Safari/537.36" etag="YEX_SKZXrX1wFo8k2Tcp" version="13.10.3" type="github">
  <diagram id="nT_nCGG0qw9_ntQJDPk1" name="Page-1">
    <mxGraphModel dx="1422" dy="1866" grid="1" gridSize="10" guides="1" tooltips="1" connect="1" arrows="1" fold="1" page="1" pageScale="1" pageWidth="827" pageHeight="1169" math="0" shadow="0">
      <root>
        <mxCell id="0" />
        <mxCell id="1" parent="0" />
        <mxCell id="4OjiY3rB_9hYeYBdjv_i-6" style="edgeStyle=orthogonalEdgeStyle;rounded=0;orthogonalLoop=1;jettySize=auto;html=1;exitX=1;exitY=0.5;exitDx=0;exitDy=0;entryX=0;entryY=0.5;entryDx=0;entryDy=0;endArrow=none;endFill=0;" edge="1" parent="1" source="4OjiY3rB_9hYeYBdjv_i-1" target="4OjiY3rB_9hYeYBdjv_i-2">
          <mxGeometry relative="1" as="geometry" />
        </mxCell>
        <mxCell id="4OjiY3rB_9hYeYBdjv_i-20" style="edgeStyle=orthogonalEdgeStyle;rounded=0;orthogonalLoop=1;jettySize=auto;html=1;exitX=0.5;exitY=1;exitDx=0;exitDy=0;entryX=0.5;entryY=0;entryDx=0;entryDy=0;endArrow=none;endFill=0;" edge="1" parent="1" source="4OjiY3rB_9hYeYBdjv_i-1" target="4OjiY3rB_9hYeYBdjv_i-18">
          <mxGeometry relative="1" as="geometry" />
        </mxCell>
        <mxCell id="4OjiY3rB_9hYeYBdjv_i-30" style="edgeStyle=orthogonalEdgeStyle;rounded=0;orthogonalLoop=1;jettySize=auto;html=1;exitX=0.5;exitY=0;exitDx=0;exitDy=0;entryX=1;entryY=0.5;entryDx=0;entryDy=0;endArrow=none;endFill=0;" edge="1" parent="1" source="4OjiY3rB_9hYeYBdjv_i-1" target="4OjiY3rB_9hYeYBdjv_i-4">
          <mxGeometry relative="1" as="geometry">
            <Array as="points">
              <mxPoint x="180" y="20" />
            </Array>
          </mxGeometry>
        </mxCell>
        <mxCell id="4OjiY3rB_9hYeYBdjv_i-31" style="edgeStyle=orthogonalEdgeStyle;rounded=0;orthogonalLoop=1;jettySize=auto;html=1;exitX=0.5;exitY=0;exitDx=0;exitDy=0;entryX=1;entryY=0.5;entryDx=0;entryDy=0;endArrow=none;endFill=0;" edge="1" parent="1" source="4OjiY3rB_9hYeYBdjv_i-1" target="4OjiY3rB_9hYeYBdjv_i-3">
          <mxGeometry relative="1" as="geometry">
            <Array as="points">
              <mxPoint x="180" y="-20" />
            </Array>
          </mxGeometry>
        </mxCell>
        <mxCell id="4OjiY3rB_9hYeYBdjv_i-32" style="edgeStyle=orthogonalEdgeStyle;rounded=0;orthogonalLoop=1;jettySize=auto;html=1;exitX=0.5;exitY=0;exitDx=0;exitDy=0;entryX=1;entryY=0.5;entryDx=0;entryDy=0;endArrow=none;endFill=0;" edge="1" parent="1" source="4OjiY3rB_9hYeYBdjv_i-1" target="4OjiY3rB_9hYeYBdjv_i-12">
          <mxGeometry relative="1" as="geometry">
            <Array as="points">
              <mxPoint x="180" y="-60" />
            </Array>
          </mxGeometry>
        </mxCell>
        <mxCell id="4OjiY3rB_9hYeYBdjv_i-33" style="edgeStyle=orthogonalEdgeStyle;rounded=0;orthogonalLoop=1;jettySize=auto;html=1;exitX=0.5;exitY=0;exitDx=0;exitDy=0;entryX=1;entryY=0.5;entryDx=0;entryDy=0;endArrow=none;endFill=0;" edge="1" parent="1" source="4OjiY3rB_9hYeYBdjv_i-1" target="4OjiY3rB_9hYeYBdjv_i-13">
          <mxGeometry relative="1" as="geometry">
            <Array as="points">
              <mxPoint x="180" y="-100" />
            </Array>
          </mxGeometry>
        </mxCell>
        <mxCell id="4OjiY3rB_9hYeYBdjv_i-34" style="edgeStyle=orthogonalEdgeStyle;rounded=0;orthogonalLoop=1;jettySize=auto;html=1;exitX=0.5;exitY=0;exitDx=0;exitDy=0;entryX=1;entryY=0.5;entryDx=0;entryDy=0;endArrow=none;endFill=0;" edge="1" parent="1" source="4OjiY3rB_9hYeYBdjv_i-1" target="4OjiY3rB_9hYeYBdjv_i-14">
          <mxGeometry relative="1" as="geometry">
            <Array as="points">
              <mxPoint x="180" y="-140" />
            </Array>
          </mxGeometry>
        </mxCell>
        <mxCell id="4OjiY3rB_9hYeYBdjv_i-35" style="edgeStyle=orthogonalEdgeStyle;rounded=0;orthogonalLoop=1;jettySize=auto;html=1;exitX=0.5;exitY=0;exitDx=0;exitDy=0;entryX=1;entryY=0.5;entryDx=0;entryDy=0;endArrow=none;endFill=0;" edge="1" parent="1" source="4OjiY3rB_9hYeYBdjv_i-1" target="4OjiY3rB_9hYeYBdjv_i-15">
          <mxGeometry relative="1" as="geometry">
            <Array as="points">
              <mxPoint x="180" y="-180" />
            </Array>
          </mxGeometry>
        </mxCell>
        <mxCell id="4OjiY3rB_9hYeYBdjv_i-36" style="edgeStyle=orthogonalEdgeStyle;rounded=0;orthogonalLoop=1;jettySize=auto;html=1;exitX=0.5;exitY=0;exitDx=0;exitDy=0;entryX=1;entryY=0.5;entryDx=0;entryDy=0;endArrow=none;endFill=0;" edge="1" parent="1" source="4OjiY3rB_9hYeYBdjv_i-1" target="4OjiY3rB_9hYeYBdjv_i-16">
          <mxGeometry relative="1" as="geometry">
            <Array as="points">
              <mxPoint x="180" y="-220" />
            </Array>
          </mxGeometry>
        </mxCell>
        <mxCell id="4OjiY3rB_9hYeYBdjv_i-1" value="EMPLEADO" style="whiteSpace=wrap;html=1;align=center;fillColor=#dae8fc;strokeColor=#6c8ebf;" vertex="1" parent="1">
          <mxGeometry x="130" y="50" width="100" height="40" as="geometry" />
        </mxCell>
        <mxCell id="4OjiY3rB_9hYeYBdjv_i-7" style="edgeStyle=orthogonalEdgeStyle;rounded=0;orthogonalLoop=1;jettySize=auto;html=1;exitX=1;exitY=0.5;exitDx=0;exitDy=0;entryX=0;entryY=0.5;entryDx=0;entryDy=0;endArrow=none;endFill=0;" edge="1" parent="1" source="4OjiY3rB_9hYeYBdjv_i-2" target="4OjiY3rB_9hYeYBdjv_i-5">
          <mxGeometry relative="1" as="geometry" />
        </mxCell>
        <mxCell id="4OjiY3rB_9hYeYBdjv_i-2" value="ASIGNAN" style="shape=rhombus;perimeter=rhombusPerimeter;whiteSpace=wrap;html=1;align=center;fillColor=#d5e8d4;strokeColor=#82b366;" vertex="1" parent="1">
          <mxGeometry x="280" y="40" width="120" height="60" as="geometry" />
        </mxCell>
        <mxCell id="4OjiY3rB_9hYeYBdjv_i-3" value="num_fiscal" style="ellipse;whiteSpace=wrap;html=1;align=center;fillColor=#ffe6cc;strokeColor=#d79b00;" vertex="1" parent="1">
          <mxGeometry x="70" y="-40" width="100" height="40" as="geometry" />
        </mxCell>
        <mxCell id="4OjiY3rB_9hYeYBdjv_i-4" value="id_empleado" style="ellipse;whiteSpace=wrap;html=1;align=center;fontStyle=4;fillColor=#ffe6cc;strokeColor=#d79b00;" vertex="1" parent="1">
          <mxGeometry x="70" width="100" height="40" as="geometry" />
        </mxCell>
        <mxCell id="4OjiY3rB_9hYeYBdjv_i-39" style="edgeStyle=orthogonalEdgeStyle;rounded=0;orthogonalLoop=1;jettySize=auto;html=1;exitX=0.5;exitY=1;exitDx=0;exitDy=0;entryX=0.5;entryY=0;entryDx=0;entryDy=0;endArrow=none;endFill=0;" edge="1" parent="1" source="4OjiY3rB_9hYeYBdjv_i-5" target="4OjiY3rB_9hYeYBdjv_i-38">
          <mxGeometry relative="1" as="geometry" />
        </mxCell>
        <mxCell id="4OjiY3rB_9hYeYBdjv_i-87" style="edgeStyle=orthogonalEdgeStyle;rounded=0;orthogonalLoop=1;jettySize=auto;html=1;exitX=1;exitY=0.5;exitDx=0;exitDy=0;entryX=0;entryY=0.5;entryDx=0;entryDy=0;endArrow=none;endFill=0;" edge="1" parent="1" source="4OjiY3rB_9hYeYBdjv_i-5" target="4OjiY3rB_9hYeYBdjv_i-26">
          <mxGeometry relative="1" as="geometry" />
        </mxCell>
        <mxCell id="4OjiY3rB_9hYeYBdjv_i-88" style="edgeStyle=orthogonalEdgeStyle;rounded=0;orthogonalLoop=1;jettySize=auto;html=1;exitX=1;exitY=0.5;exitDx=0;exitDy=0;entryX=0;entryY=0.5;entryDx=0;entryDy=0;endArrow=none;endFill=0;" edge="1" parent="1" source="4OjiY3rB_9hYeYBdjv_i-5" target="4OjiY3rB_9hYeYBdjv_i-27">
          <mxGeometry relative="1" as="geometry" />
        </mxCell>
        <mxCell id="4OjiY3rB_9hYeYBdjv_i-89" style="edgeStyle=orthogonalEdgeStyle;rounded=0;orthogonalLoop=1;jettySize=auto;html=1;exitX=1;exitY=0.5;exitDx=0;exitDy=0;entryX=0;entryY=0.5;entryDx=0;entryDy=0;endArrow=none;endFill=0;" edge="1" parent="1" source="4OjiY3rB_9hYeYBdjv_i-5" target="4OjiY3rB_9hYeYBdjv_i-28">
          <mxGeometry relative="1" as="geometry" />
        </mxCell>
        <mxCell id="4OjiY3rB_9hYeYBdjv_i-90" style="edgeStyle=orthogonalEdgeStyle;rounded=0;orthogonalLoop=1;jettySize=auto;html=1;exitX=1;exitY=0.5;exitDx=0;exitDy=0;entryX=0;entryY=0.5;entryDx=0;entryDy=0;endArrow=none;endFill=0;" edge="1" parent="1" source="4OjiY3rB_9hYeYBdjv_i-5" target="4OjiY3rB_9hYeYBdjv_i-29">
          <mxGeometry relative="1" as="geometry" />
        </mxCell>
        <mxCell id="4OjiY3rB_9hYeYBdjv_i-5" value="NOMINAS" style="whiteSpace=wrap;html=1;align=center;fillColor=#dae8fc;strokeColor=#6c8ebf;" vertex="1" parent="1">
          <mxGeometry x="460" y="50" width="100" height="40" as="geometry" />
        </mxCell>
        <mxCell id="4OjiY3rB_9hYeYBdjv_i-9" value="{1,N}" style="text;html=1;strokeColor=none;fillColor=none;align=center;verticalAlign=middle;whiteSpace=wrap;rounded=0;" vertex="1" parent="1">
          <mxGeometry x="420" y="50" width="40" height="20" as="geometry" />
        </mxCell>
        <mxCell id="4OjiY3rB_9hYeYBdjv_i-10" value="{1,1}" style="text;html=1;strokeColor=none;fillColor=none;align=center;verticalAlign=middle;whiteSpace=wrap;rounded=0;" vertex="1" parent="1">
          <mxGeometry x="230" y="50" width="40" height="20" as="geometry" />
        </mxCell>
        <mxCell id="4OjiY3rB_9hYeYBdjv_i-11" value="1:N" style="text;html=1;strokeColor=none;fillColor=none;align=center;verticalAlign=middle;whiteSpace=wrap;rounded=0;" vertex="1" parent="1">
          <mxGeometry x="320" y="20" width="40" height="20" as="geometry" />
        </mxCell>
        <mxCell id="4OjiY3rB_9hYeYBdjv_i-12" value="nombre" style="ellipse;whiteSpace=wrap;html=1;align=center;fillColor=#ffe6cc;strokeColor=#d79b00;" vertex="1" parent="1">
          <mxGeometry x="70" y="-80" width="100" height="40" as="geometry" />
        </mxCell>
        <mxCell id="4OjiY3rB_9hYeYBdjv_i-13" value="num_hijos" style="ellipse;whiteSpace=wrap;html=1;align=center;fillColor=#ffe6cc;strokeColor=#d79b00;" vertex="1" parent="1">
          <mxGeometry x="70" y="-120" width="100" height="40" as="geometry" />
        </mxCell>
        <mxCell id="4OjiY3rB_9hYeYBdjv_i-14" value="%retencion_hacienda" style="ellipse;whiteSpace=wrap;html=1;align=center;fillColor=#ffe6cc;strokeColor=#d79b00;" vertex="1" parent="1">
          <mxGeometry x="50" y="-160" width="120" height="40" as="geometry" />
        </mxCell>
        <mxCell id="4OjiY3rB_9hYeYBdjv_i-15" value="datos_cuenta_corriente" style="ellipse;whiteSpace=wrap;html=1;align=center;fillColor=#ffe6cc;strokeColor=#d79b00;" vertex="1" parent="1">
          <mxGeometry x="40" y="-200" width="130" height="40" as="geometry" />
        </mxCell>
        <mxCell id="4OjiY3rB_9hYeYBdjv_i-16" value="departamento" style="ellipse;whiteSpace=wrap;html=1;align=center;fillColor=#ffe6cc;strokeColor=#d79b00;" vertex="1" parent="1">
          <mxGeometry x="70" y="-240" width="100" height="40" as="geometry" />
        </mxCell>
        <mxCell id="4OjiY3rB_9hYeYBdjv_i-91" style="edgeStyle=orthogonalEdgeStyle;rounded=0;orthogonalLoop=1;jettySize=auto;html=1;exitX=0;exitY=0.5;exitDx=0;exitDy=0;entryX=1;entryY=0.5;entryDx=0;entryDy=0;endArrow=none;endFill=0;" edge="1" parent="1" source="4OjiY3rB_9hYeYBdjv_i-17" target="4OjiY3rB_9hYeYBdjv_i-24">
          <mxGeometry relative="1" as="geometry" />
        </mxCell>
        <mxCell id="4OjiY3rB_9hYeYBdjv_i-92" style="edgeStyle=orthogonalEdgeStyle;rounded=0;orthogonalLoop=1;jettySize=auto;html=1;exitX=0;exitY=0.5;exitDx=0;exitDy=0;entryX=1;entryY=0.5;entryDx=0;entryDy=0;endArrow=none;endFill=0;" edge="1" parent="1" source="4OjiY3rB_9hYeYBdjv_i-17" target="4OjiY3rB_9hYeYBdjv_i-25">
          <mxGeometry relative="1" as="geometry" />
        </mxCell>
        <mxCell id="4OjiY3rB_9hYeYBdjv_i-17" value="DEPARTAMENTOS" style="whiteSpace=wrap;html=1;align=center;fillColor=#dae8fc;strokeColor=#6c8ebf;" vertex="1" parent="1">
          <mxGeometry x="130" y="250" width="110" height="40" as="geometry" />
        </mxCell>
        <mxCell id="4OjiY3rB_9hYeYBdjv_i-21" style="edgeStyle=orthogonalEdgeStyle;rounded=0;orthogonalLoop=1;jettySize=auto;html=1;exitX=0.5;exitY=1;exitDx=0;exitDy=0;entryX=0.5;entryY=0;entryDx=0;entryDy=0;endArrow=none;endFill=0;" edge="1" parent="1" source="4OjiY3rB_9hYeYBdjv_i-18" target="4OjiY3rB_9hYeYBdjv_i-17">
          <mxGeometry relative="1" as="geometry">
            <Array as="points">
              <mxPoint x="180" y="250" />
            </Array>
          </mxGeometry>
        </mxCell>
        <mxCell id="4OjiY3rB_9hYeYBdjv_i-18" value="TRABAJA" style="shape=rhombus;perimeter=rhombusPerimeter;whiteSpace=wrap;html=1;align=center;fillColor=#d5e8d4;strokeColor=#82b366;" vertex="1" parent="1">
          <mxGeometry x="120" y="130" width="120" height="60" as="geometry" />
        </mxCell>
        <mxCell id="4OjiY3rB_9hYeYBdjv_i-19" value="{1,N}" style="text;html=1;strokeColor=none;fillColor=none;align=center;verticalAlign=middle;whiteSpace=wrap;rounded=0;" vertex="1" parent="1">
          <mxGeometry x="180" y="90" width="40" height="20" as="geometry" />
        </mxCell>
        <mxCell id="4OjiY3rB_9hYeYBdjv_i-22" value="{1,N}" style="text;html=1;strokeColor=none;fillColor=none;align=center;verticalAlign=middle;whiteSpace=wrap;rounded=0;" vertex="1" parent="1">
          <mxGeometry x="180" y="230" width="40" height="20" as="geometry" />
        </mxCell>
        <mxCell id="4OjiY3rB_9hYeYBdjv_i-23" value="N:N" style="text;html=1;strokeColor=none;fillColor=none;align=center;verticalAlign=middle;whiteSpace=wrap;rounded=0;" vertex="1" parent="1">
          <mxGeometry x="240" y="150" width="40" height="20" as="geometry" />
        </mxCell>
        <mxCell id="4OjiY3rB_9hYeYBdjv_i-24" value="nombre" style="ellipse;whiteSpace=wrap;html=1;align=center;fontStyle=4;fillColor=#ffe6cc;strokeColor=#d79b00;" vertex="1" parent="1">
          <mxGeometry x="10" y="230" width="100" height="40" as="geometry" />
        </mxCell>
        <mxCell id="4OjiY3rB_9hYeYBdjv_i-25" value="sedes" style="ellipse;whiteSpace=wrap;html=1;align=center;fillColor=#ffe6cc;strokeColor=#d79b00;" vertex="1" parent="1">
          <mxGeometry x="10" y="270" width="100" height="40" as="geometry" />
        </mxCell>
        <mxCell id="4OjiY3rB_9hYeYBdjv_i-26" value="id__nomina_empleado" style="ellipse;whiteSpace=wrap;html=1;align=center;fontStyle=4;fillColor=#ffe6cc;strokeColor=#d79b00;" vertex="1" parent="1">
          <mxGeometry x="600" y="50" width="140" height="40" as="geometry" />
        </mxCell>
        <mxCell id="4OjiY3rB_9hYeYBdjv_i-27" value="ejercicio_fiscal" style="ellipse;whiteSpace=wrap;html=1;align=center;fillColor=#ffe6cc;strokeColor=#d79b00;" vertex="1" parent="1">
          <mxGeometry x="600" y="10" width="100" height="40" as="geometry" />
        </mxCell>
        <mxCell id="4OjiY3rB_9hYeYBdjv_i-28" value="num_mes" style="ellipse;whiteSpace=wrap;html=1;align=center;fillColor=#ffe6cc;strokeColor=#d79b00;" vertex="1" parent="1">
          <mxGeometry x="600" y="-30" width="100" height="40" as="geometry" />
        </mxCell>
        <mxCell id="4OjiY3rB_9hYeYBdjv_i-29" value="num_orden" style="ellipse;whiteSpace=wrap;html=1;align=center;fillColor=#ffe6cc;strokeColor=#d79b00;" vertex="1" parent="1">
          <mxGeometry x="600" y="-70" width="100" height="40" as="geometry" />
        </mxCell>
        <mxCell id="4OjiY3rB_9hYeYBdjv_i-52" style="edgeStyle=orthogonalEdgeStyle;rounded=0;orthogonalLoop=1;jettySize=auto;html=1;exitX=0.5;exitY=1;exitDx=0;exitDy=0;entryX=0.5;entryY=0;entryDx=0;entryDy=0;endArrow=none;endFill=0;" edge="1" parent="1" source="4OjiY3rB_9hYeYBdjv_i-37" target="4OjiY3rB_9hYeYBdjv_i-48">
          <mxGeometry relative="1" as="geometry" />
        </mxCell>
        <mxCell id="4OjiY3rB_9hYeYBdjv_i-76" style="edgeStyle=orthogonalEdgeStyle;rounded=0;orthogonalLoop=1;jettySize=auto;html=1;exitX=0;exitY=0.5;exitDx=0;exitDy=0;entryX=1;entryY=0.5;entryDx=0;entryDy=0;endArrow=none;endFill=0;" edge="1" parent="1" source="4OjiY3rB_9hYeYBdjv_i-37" target="4OjiY3rB_9hYeYBdjv_i-44">
          <mxGeometry relative="1" as="geometry" />
        </mxCell>
        <mxCell id="4OjiY3rB_9hYeYBdjv_i-78" style="edgeStyle=orthogonalEdgeStyle;rounded=0;orthogonalLoop=1;jettySize=auto;html=1;exitX=1;exitY=0.5;exitDx=0;exitDy=0;entryX=0;entryY=0.5;entryDx=0;entryDy=0;endArrow=none;endFill=0;" edge="1" parent="1" source="4OjiY3rB_9hYeYBdjv_i-37" target="4OjiY3rB_9hYeYBdjv_i-77">
          <mxGeometry relative="1" as="geometry" />
        </mxCell>
        <mxCell id="4OjiY3rB_9hYeYBdjv_i-37" value="LINEAS" style="whiteSpace=wrap;html=1;align=center;fillColor=#dae8fc;strokeColor=#6c8ebf;" vertex="1" parent="1">
          <mxGeometry x="460" y="230" width="100" height="40" as="geometry" />
        </mxCell>
        <mxCell id="4OjiY3rB_9hYeYBdjv_i-40" style="edgeStyle=orthogonalEdgeStyle;rounded=0;orthogonalLoop=1;jettySize=auto;html=1;exitX=0.5;exitY=1;exitDx=0;exitDy=0;entryX=0.5;entryY=0;entryDx=0;entryDy=0;endArrow=none;endFill=0;" edge="1" parent="1" source="4OjiY3rB_9hYeYBdjv_i-38" target="4OjiY3rB_9hYeYBdjv_i-37">
          <mxGeometry relative="1" as="geometry" />
        </mxCell>
        <mxCell id="4OjiY3rB_9hYeYBdjv_i-38" value="CONSTA_DE" style="shape=rhombus;perimeter=rhombusPerimeter;whiteSpace=wrap;html=1;align=center;fillColor=#d5e8d4;strokeColor=#82b366;" vertex="1" parent="1">
          <mxGeometry x="450" y="130" width="120" height="60" as="geometry" />
        </mxCell>
        <mxCell id="4OjiY3rB_9hYeYBdjv_i-41" value="{1,1}" style="text;html=1;strokeColor=none;fillColor=none;align=center;verticalAlign=middle;whiteSpace=wrap;rounded=0;" vertex="1" parent="1">
          <mxGeometry x="510" y="90" width="40" height="20" as="geometry" />
        </mxCell>
        <mxCell id="4OjiY3rB_9hYeYBdjv_i-42" value="{1,N}" style="text;html=1;strokeColor=none;fillColor=none;align=center;verticalAlign=middle;whiteSpace=wrap;rounded=0;" vertex="1" parent="1">
          <mxGeometry x="510" y="210" width="40" height="20" as="geometry" />
        </mxCell>
        <mxCell id="4OjiY3rB_9hYeYBdjv_i-43" value="1:N" style="text;html=1;strokeColor=none;fillColor=none;align=center;verticalAlign=middle;whiteSpace=wrap;rounded=0;" vertex="1" parent="1">
          <mxGeometry x="570" y="150" width="40" height="20" as="geometry" />
        </mxCell>
        <mxCell id="4OjiY3rB_9hYeYBdjv_i-44" value="num_linea" style="ellipse;whiteSpace=wrap;html=1;align=center;fontStyle=4;fillColor=#ffe6cc;strokeColor=#d79b00;" vertex="1" parent="1">
          <mxGeometry x="340" y="230" width="100" height="40" as="geometry" />
        </mxCell>
        <mxCell id="4OjiY3rB_9hYeYBdjv_i-93" style="edgeStyle=orthogonalEdgeStyle;rounded=0;orthogonalLoop=1;jettySize=auto;html=1;exitX=0.5;exitY=1;exitDx=0;exitDy=0;entryX=1;entryY=0.5;entryDx=0;entryDy=0;endArrow=none;endFill=0;" edge="1" parent="1" source="4OjiY3rB_9hYeYBdjv_i-45" target="4OjiY3rB_9hYeYBdjv_i-56">
          <mxGeometry relative="1" as="geometry">
            <Array as="points">
              <mxPoint x="440" y="420" />
            </Array>
          </mxGeometry>
        </mxCell>
        <mxCell id="4OjiY3rB_9hYeYBdjv_i-94" style="edgeStyle=orthogonalEdgeStyle;rounded=0;orthogonalLoop=1;jettySize=auto;html=1;exitX=0.5;exitY=1;exitDx=0;exitDy=0;entryX=1;entryY=0.5;entryDx=0;entryDy=0;endArrow=none;endFill=0;" edge="1" parent="1" source="4OjiY3rB_9hYeYBdjv_i-45" target="4OjiY3rB_9hYeYBdjv_i-58">
          <mxGeometry relative="1" as="geometry">
            <Array as="points">
              <mxPoint x="440" y="460" />
            </Array>
          </mxGeometry>
        </mxCell>
        <mxCell id="4OjiY3rB_9hYeYBdjv_i-45" value="INGRESO" style="whiteSpace=wrap;html=1;align=center;fillColor=#dae8fc;strokeColor=#6c8ebf;" vertex="1" parent="1">
          <mxGeometry x="390" y="340" width="100" height="40" as="geometry" />
        </mxCell>
        <mxCell id="4OjiY3rB_9hYeYBdjv_i-95" style="edgeStyle=orthogonalEdgeStyle;rounded=0;orthogonalLoop=1;jettySize=auto;html=1;exitX=0.5;exitY=1;exitDx=0;exitDy=0;entryX=0;entryY=0.5;entryDx=0;entryDy=0;endArrow=none;endFill=0;" edge="1" parent="1" source="4OjiY3rB_9hYeYBdjv_i-46" target="4OjiY3rB_9hYeYBdjv_i-59">
          <mxGeometry relative="1" as="geometry">
            <Array as="points">
              <mxPoint x="590" y="410" />
            </Array>
          </mxGeometry>
        </mxCell>
        <mxCell id="4OjiY3rB_9hYeYBdjv_i-96" style="edgeStyle=orthogonalEdgeStyle;rounded=0;orthogonalLoop=1;jettySize=auto;html=1;exitX=0.5;exitY=1;exitDx=0;exitDy=0;entryX=0;entryY=0.5;entryDx=0;entryDy=0;endArrow=none;endFill=0;" edge="1" parent="1" source="4OjiY3rB_9hYeYBdjv_i-46" target="4OjiY3rB_9hYeYBdjv_i-60">
          <mxGeometry relative="1" as="geometry" />
        </mxCell>
        <mxCell id="4OjiY3rB_9hYeYBdjv_i-46" value="DESCUENTO" style="whiteSpace=wrap;html=1;align=center;fillColor=#dae8fc;strokeColor=#6c8ebf;" vertex="1" parent="1">
          <mxGeometry x="540" y="340" width="100" height="40" as="geometry" />
        </mxCell>
        <mxCell id="4OjiY3rB_9hYeYBdjv_i-48" value="" style="ellipse;whiteSpace=wrap;html=1;aspect=fixed;" vertex="1" parent="1">
          <mxGeometry x="500" y="280" width="20" height="20" as="geometry" />
        </mxCell>
        <mxCell id="4OjiY3rB_9hYeYBdjv_i-53" style="edgeStyle=orthogonalEdgeStyle;rounded=0;orthogonalLoop=1;jettySize=auto;html=1;exitX=0.5;exitY=0;exitDx=0;exitDy=0;entryX=0.5;entryY=0;entryDx=0;entryDy=0;endArrow=none;endFill=0;" edge="1" parent="1" source="4OjiY3rB_9hYeYBdjv_i-49" target="4OjiY3rB_9hYeYBdjv_i-46">
          <mxGeometry relative="1" as="geometry" />
        </mxCell>
        <mxCell id="4OjiY3rB_9hYeYBdjv_i-54" style="edgeStyle=orthogonalEdgeStyle;rounded=0;orthogonalLoop=1;jettySize=auto;html=1;exitX=0.5;exitY=1;exitDx=0;exitDy=0;entryX=0.5;entryY=0;entryDx=0;entryDy=0;endArrow=none;endFill=0;" edge="1" parent="1" source="4OjiY3rB_9hYeYBdjv_i-49" target="4OjiY3rB_9hYeYBdjv_i-45">
          <mxGeometry relative="1" as="geometry">
            <Array as="points">
              <mxPoint x="440" y="315" />
            </Array>
          </mxGeometry>
        </mxCell>
        <mxCell id="4OjiY3rB_9hYeYBdjv_i-49" value="" style="triangle;whiteSpace=wrap;html=1;rotation=90;" vertex="1" parent="1">
          <mxGeometry x="495" y="290" width="30" height="50" as="geometry" />
        </mxCell>
        <mxCell id="4OjiY3rB_9hYeYBdjv_i-50" value="" style="endArrow=none;html=1;" edge="1" parent="1">
          <mxGeometry width="50" height="50" relative="1" as="geometry">
            <mxPoint x="480" y="320" as="sourcePoint" />
            <mxPoint x="540" y="320" as="targetPoint" />
            <Array as="points">
              <mxPoint x="510" y="330" />
            </Array>
          </mxGeometry>
        </mxCell>
        <mxCell id="4OjiY3rB_9hYeYBdjv_i-51" value="{D,T}" style="text;html=1;align=center;verticalAlign=middle;resizable=0;points=[];autosize=1;" vertex="1" parent="1">
          <mxGeometry x="520" y="280" width="40" height="20" as="geometry" />
        </mxCell>
        <mxCell id="4OjiY3rB_9hYeYBdjv_i-56" value="cantidad_linea&lt;br&gt;ingreso" style="ellipse;whiteSpace=wrap;html=1;align=center;fillColor=#ffe6cc;strokeColor=#d79b00;" vertex="1" parent="1">
          <mxGeometry x="330" y="400" width="100" height="40" as="geometry" />
        </mxCell>
        <mxCell id="4OjiY3rB_9hYeYBdjv_i-63" style="edgeStyle=orthogonalEdgeStyle;rounded=0;orthogonalLoop=1;jettySize=auto;html=1;exitX=0;exitY=0.5;exitDx=0;exitDy=0;entryX=1;entryY=0.5;entryDx=0;entryDy=0;endArrow=none;endFill=0;" edge="1" parent="1" source="4OjiY3rB_9hYeYBdjv_i-58" target="4OjiY3rB_9hYeYBdjv_i-61">
          <mxGeometry relative="1" as="geometry" />
        </mxCell>
        <mxCell id="4OjiY3rB_9hYeYBdjv_i-64" style="edgeStyle=orthogonalEdgeStyle;rounded=0;orthogonalLoop=1;jettySize=auto;html=1;exitX=0;exitY=0.5;exitDx=0;exitDy=0;entryX=1;entryY=0.5;entryDx=0;entryDy=0;endArrow=none;endFill=0;" edge="1" parent="1" source="4OjiY3rB_9hYeYBdjv_i-58" target="4OjiY3rB_9hYeYBdjv_i-62">
          <mxGeometry relative="1" as="geometry" />
        </mxCell>
        <mxCell id="4OjiY3rB_9hYeYBdjv_i-58" value="cantidad_linea&lt;br&gt;descuento" style="ellipse;whiteSpace=wrap;html=1;align=center;fillColor=#ffe6cc;strokeColor=#d79b00;" vertex="1" parent="1">
          <mxGeometry x="330" y="440" width="100" height="40" as="geometry" />
        </mxCell>
        <mxCell id="4OjiY3rB_9hYeYBdjv_i-59" value="cantidad_linea&lt;br&gt;ingreso" style="ellipse;whiteSpace=wrap;html=1;align=center;fillColor=#ffe6cc;strokeColor=#d79b00;" vertex="1" parent="1">
          <mxGeometry x="610" y="390" width="100" height="40" as="geometry" />
        </mxCell>
        <mxCell id="4OjiY3rB_9hYeYBdjv_i-72" style="edgeStyle=orthogonalEdgeStyle;rounded=0;orthogonalLoop=1;jettySize=auto;html=1;exitX=1;exitY=0.5;exitDx=0;exitDy=0;entryX=0;entryY=0.5;entryDx=0;entryDy=0;endArrow=none;endFill=0;" edge="1" parent="1" source="4OjiY3rB_9hYeYBdjv_i-60" target="4OjiY3rB_9hYeYBdjv_i-70">
          <mxGeometry relative="1" as="geometry" />
        </mxCell>
        <mxCell id="4OjiY3rB_9hYeYBdjv_i-73" style="edgeStyle=orthogonalEdgeStyle;rounded=0;orthogonalLoop=1;jettySize=auto;html=1;exitX=1;exitY=0.5;exitDx=0;exitDy=0;entryX=0;entryY=0.5;entryDx=0;entryDy=0;endArrow=none;endFill=0;" edge="1" parent="1" source="4OjiY3rB_9hYeYBdjv_i-60" target="4OjiY3rB_9hYeYBdjv_i-71">
          <mxGeometry relative="1" as="geometry" />
        </mxCell>
        <mxCell id="4OjiY3rB_9hYeYBdjv_i-60" value="cantidad_linea&lt;br&gt;descuento" style="ellipse;whiteSpace=wrap;html=1;align=center;fillColor=#ffe6cc;strokeColor=#d79b00;" vertex="1" parent="1">
          <mxGeometry x="610" y="430" width="100" height="40" as="geometry" />
        </mxCell>
        <mxCell id="4OjiY3rB_9hYeYBdjv_i-61" value="base_aplicable" style="ellipse;whiteSpace=wrap;html=1;align=center;fillColor=#f8cecc;strokeColor=#b85450;" vertex="1" parent="1">
          <mxGeometry x="190" y="420" width="100" height="40" as="geometry" />
        </mxCell>
        <mxCell id="4OjiY3rB_9hYeYBdjv_i-62" value="%calculos" style="ellipse;whiteSpace=wrap;html=1;align=center;fillColor=#f8cecc;strokeColor=#b85450;" vertex="1" parent="1">
          <mxGeometry x="190" y="460" width="100" height="40" as="geometry" />
        </mxCell>
        <mxCell id="4OjiY3rB_9hYeYBdjv_i-70" value="base_aplicable" style="ellipse;whiteSpace=wrap;html=1;align=center;fillColor=#f8cecc;strokeColor=#b85450;" vertex="1" parent="1">
          <mxGeometry x="750" y="410" width="100" height="40" as="geometry" />
        </mxCell>
        <mxCell id="4OjiY3rB_9hYeYBdjv_i-71" value="%calculos" style="ellipse;whiteSpace=wrap;html=1;align=center;fillColor=#f8cecc;strokeColor=#b85450;" vertex="1" parent="1">
          <mxGeometry x="750" y="450" width="100" height="40" as="geometry" />
        </mxCell>
        <mxCell id="4OjiY3rB_9hYeYBdjv_i-85" style="edgeStyle=orthogonalEdgeStyle;rounded=0;orthogonalLoop=1;jettySize=auto;html=1;exitX=1;exitY=0.5;exitDx=0;exitDy=0;entryX=0;entryY=0.5;entryDx=0;entryDy=0;endArrow=none;endFill=0;" edge="1" parent="1" source="4OjiY3rB_9hYeYBdjv_i-74" target="4OjiY3rB_9hYeYBdjv_i-84">
          <mxGeometry relative="1" as="geometry" />
        </mxCell>
        <mxCell id="4OjiY3rB_9hYeYBdjv_i-86" style="edgeStyle=orthogonalEdgeStyle;rounded=0;orthogonalLoop=1;jettySize=auto;html=1;exitX=1;exitY=0.5;exitDx=0;exitDy=0;entryX=0;entryY=0.5;entryDx=0;entryDy=0;endArrow=none;endFill=0;" edge="1" parent="1" source="4OjiY3rB_9hYeYBdjv_i-74" target="4OjiY3rB_9hYeYBdjv_i-83">
          <mxGeometry relative="1" as="geometry" />
        </mxCell>
        <mxCell id="4OjiY3rB_9hYeYBdjv_i-74" value="CONCEPTO&lt;br&gt;RETRIBUTIVO" style="whiteSpace=wrap;html=1;align=center;fillColor=#dae8fc;strokeColor=#6c8ebf;" vertex="1" parent="1">
          <mxGeometry x="760" y="230" width="100" height="40" as="geometry" />
        </mxCell>
        <mxCell id="4OjiY3rB_9hYeYBdjv_i-79" style="edgeStyle=orthogonalEdgeStyle;rounded=0;orthogonalLoop=1;jettySize=auto;html=1;exitX=1;exitY=0.5;exitDx=0;exitDy=0;entryX=0;entryY=0.5;entryDx=0;entryDy=0;endArrow=none;endFill=0;" edge="1" parent="1" source="4OjiY3rB_9hYeYBdjv_i-77" target="4OjiY3rB_9hYeYBdjv_i-74">
          <mxGeometry relative="1" as="geometry" />
        </mxCell>
        <mxCell id="4OjiY3rB_9hYeYBdjv_i-77" value="RESPONDEN" style="shape=rhombus;perimeter=rhombusPerimeter;whiteSpace=wrap;html=1;align=center;fillColor=#d5e8d4;strokeColor=#82b366;" vertex="1" parent="1">
          <mxGeometry x="600" y="220" width="120" height="60" as="geometry" />
        </mxCell>
        <mxCell id="4OjiY3rB_9hYeYBdjv_i-80" value="{1,1}" style="text;html=1;strokeColor=none;fillColor=none;align=center;verticalAlign=middle;whiteSpace=wrap;rounded=0;" vertex="1" parent="1">
          <mxGeometry x="720" y="230" width="40" height="20" as="geometry" />
        </mxCell>
        <mxCell id="4OjiY3rB_9hYeYBdjv_i-81" value="{1,N}" style="text;html=1;strokeColor=none;fillColor=none;align=center;verticalAlign=middle;whiteSpace=wrap;rounded=0;" vertex="1" parent="1">
          <mxGeometry x="560" y="230" width="40" height="20" as="geometry" />
        </mxCell>
        <mxCell id="4OjiY3rB_9hYeYBdjv_i-82" value="N:1" style="text;html=1;strokeColor=none;fillColor=none;align=center;verticalAlign=middle;whiteSpace=wrap;rounded=0;" vertex="1" parent="1">
          <mxGeometry x="640" y="200" width="40" height="20" as="geometry" />
        </mxCell>
        <mxCell id="4OjiY3rB_9hYeYBdjv_i-83" value="codigo" style="ellipse;whiteSpace=wrap;html=1;align=center;fontStyle=4;fillColor=#ffe6cc;strokeColor=#d79b00;" vertex="1" parent="1">
          <mxGeometry x="910" y="250" width="100" height="40" as="geometry" />
        </mxCell>
        <mxCell id="4OjiY3rB_9hYeYBdjv_i-84" value="descripcion" style="ellipse;whiteSpace=wrap;html=1;align=center;fillColor=#ffe6cc;strokeColor=#d79b00;" vertex="1" parent="1">
          <mxGeometry x="910" y="210" width="100" height="40" as="geometry" />
        </mxCell>
      </root>
    </mxGraphModel>
  </diagram>
</mxfile>
